<svg width="189" height="43" viewBox="0 0 189 43" fill="none" xmlns="http://www.w3.org/2000/svg">
<path d="M79.9708 34.8734C78.8682 34.8734 77.9631 33.9496 77.9631 32.8242V21.3855C77.9631 20.2602 78.8682 19.3363 79.9708 19.3363C81.0734 19.3363 81.9785 20.2602 81.9785 21.3855V32.8242C81.9785 33.9496 81.0899 34.8734 79.9708 34.8734Z" fill="#EA2627"/>
<path d="M93.1197 20.7137H90.6183L90.8816 19.5043H93.383L94.1894 15.5738C94.8147 12.6512 96.6579 11.7442 98.5339 11.7442C99.7846 11.7442 100.558 12.2649 100.558 12.2649L99.8505 13.3231C99.8505 13.3231 98.9783 12.9535 98.4187 12.9535C97.1351 12.9535 96.0984 13.5918 95.6211 15.9098L94.8806 19.5043H98.5833L98.32 20.7137H94.6337L91.4576 35.7972C90.5854 39.9628 87.4093 41.7937 85.1053 42.4656L84.9243 41.189C87.1295 40.4835 89.2195 39.3582 89.9929 35.6293L93.1197 20.7137Z" fill="#808083"/>
<path d="M100.92 30.7582C100.805 31.3965 100.739 31.934 100.739 32.4043C100.739 33.5297 101.282 33.6808 102.138 33.6808V34.8902C102.138 34.8902 101.776 34.9238 101.611 34.9238C100.245 34.9238 99.1921 34.2855 99.1921 32.4883C99.1921 32.1187 99.258 31.6988 99.3402 31.2117L101.759 19.5043H103.257L100.92 30.7582ZM101.907 14.818L103.784 13.2391L105.001 14.7844L103.125 16.3633L101.907 14.818Z" fill="#808083"/>
<path d="M116.686 34.7054H115.188L116.883 24.6609C116.949 24.2746 116.965 23.8715 116.965 23.5019C116.965 21.6711 116.077 20.4953 114.102 20.4953C111.337 20.4953 108.77 23.5355 108.523 24.6945L106.433 34.7054H104.936L108.128 19.5043H109.461L109.099 21.839C109.099 21.839 111.156 19.2859 114.283 19.2859C116.998 19.2859 118.479 20.8648 118.479 23.2164C118.479 23.5859 118.446 23.9386 118.397 24.3418L116.686 34.7054Z" fill="#808083"/>
<path d="M133.587 34.7054H132.221L132.698 31.8835C131.348 33.6136 128.995 34.9238 126.823 34.9238C123.433 34.9238 121.096 32.4546 121.096 28.8097C121.096 23.8882 124.947 19.2859 129.834 19.2859C132.254 19.2859 134.014 20.5961 134.689 22.3261L135.38 19.5043H136.746L133.587 34.7054ZM133.866 25.2488C133.866 22.2926 132.171 20.5121 129.604 20.5121C125.934 20.5121 122.626 24.0394 122.626 28.8097C122.626 31.7324 124.321 33.6976 127.037 33.6976C130.262 33.6976 133.866 30.3046 133.866 25.2488Z" fill="#808083"/>
<path d="M149.615 34.7054H148.134L149.829 24.6609C149.895 24.2746 149.911 23.8715 149.911 23.5019C149.911 21.6711 149.023 20.4953 147.048 20.4953C144.283 20.4953 141.716 23.5355 141.469 24.6945L139.379 34.7054H137.898L141.058 19.5043H142.391L142.029 21.839C142.029 21.839 144.086 19.2859 147.212 19.2859C149.928 19.2859 151.409 20.8648 151.409 23.2164C151.409 23.5859 151.376 23.9386 151.327 24.3418L149.615 34.7054Z" fill="#808083"/>
<path d="M164.558 32.673L164.788 33.9496C164.788 33.9496 162.731 34.9238 160.345 34.9238C156.56 34.9238 154.322 32.4043 154.322 28.7257C154.322 23.8043 158.222 19.3027 163.587 19.3027C166.154 19.3027 167.29 20.2769 167.29 20.2769L166.516 21.4359C166.516 21.4359 165.298 20.5289 163.356 20.5289C159.423 20.5289 155.852 23.9722 155.852 28.8937C155.852 31.85 157.695 33.7312 160.477 33.7312C162.534 33.6976 164.558 32.673 164.558 32.673Z" fill="#808083"/>
<path d="M182.495 27.7515H169.923C169.923 27.7515 169.857 28.2722 169.857 28.7929C169.857 31.5644 171.371 33.7144 174.596 33.7144C177.213 33.7144 179.665 32.3539 179.665 32.3539L179.879 33.5632C179.879 33.5632 177.377 34.9238 174.481 34.9238C170.334 34.9238 168.31 32.0683 168.31 28.7257C168.31 23.6699 172.358 19.3027 177.608 19.3027C181.278 19.3027 183.055 21.9734 183.055 24.8625C183.071 26.4414 182.495 27.7515 182.495 27.7515ZM181.426 26.5254C181.426 26.5254 181.64 25.6687 181.64 25.0976C181.64 22.4437 180.126 20.5121 177.295 20.5121C173.922 20.5121 171.042 23.1324 170.137 26.5254H181.426Z" fill="#808083"/>
<path d="M20.3164 34.8734H20.0202C18.9834 34.8734 18.1442 34.0503 18.1112 32.9921L17.815 25.1816C17.7492 23.6867 17.1403 22.7629 15.6592 22.7629C14.0465 22.7629 13.2895 24.3754 13.3224 24.8793L13.5692 32.8746C13.6021 33.9832 12.7299 34.8902 11.6603 34.8902H11.397C10.3602 34.8902 9.50445 34.0503 9.488 32.9753L9.29052 25.1648C9.22469 23.6027 8.40186 22.7797 7.2499 22.7797C5.9992 22.7797 4.91307 24.3082 4.91307 24.8625V32.9418C4.91307 34.0168 4.05732 34.8902 2.98765 34.8902H2.77371C1.72049 34.8902 0.864746 34.0168 0.864746 32.9418V21.3184C0.864746 20.2434 1.72049 19.3699 2.77371 19.3699H3.95858C4.17252 19.3699 4.37 19.5211 4.41937 19.7395L4.43582 19.8234C4.51811 20.1426 4.88015 20.2937 5.14346 20.109C5.76881 19.6891 6.88786 19.0844 8.18793 19.0844C9.81713 19.0844 10.9526 19.9746 11.4463 20.4617C11.6109 20.6297 11.8742 20.6297 12.0552 20.4953C12.911 19.8234 14.2769 19.0508 16.2681 19.0508C19.3784 19.0508 21.7152 21.4695 21.8633 24.6777L22.2254 32.8578C22.2912 33.9496 21.419 34.8734 20.3164 34.8734Z" fill="#EA2627"/>
<path d="M38.1219 34.3863C38.1219 34.655 37.9079 34.8734 37.6446 34.8734H34.9457C34.7154 34.8734 34.5343 34.7054 34.485 34.4871C34.4191 34.1679 34.0736 34 33.7938 34.1679C33.0697 34.5711 31.7038 35.1925 30.0581 35.1925C26.5529 35.1925 24.9072 33.2105 24.9072 30.523C24.9072 26.3742 29.5974 25.0977 33.5799 24.8625C33.8596 24.8457 34.0735 24.5769 34.0242 24.2914C33.8596 23.418 33.3165 22.4773 31.7367 22.4773C30.1404 22.4773 28.6593 23.25 27.9517 23.7035C27.7048 23.8547 27.3922 23.7539 27.277 23.4852L26.2238 21.0832C26.125 20.8481 26.2238 20.5793 26.4377 20.4617C27.277 20.0082 29.3999 19.034 31.7367 19.034C36.2952 19.034 38.1383 21.4863 38.1383 25.5848V34.3863H38.1219ZM33.9584 30.3047C34.0571 30.2207 34.1065 30.0863 34.1065 29.9519V28.5578C34.1065 28.289 33.8761 28.0539 33.6128 28.0707C31.1278 28.2387 28.9062 29.0113 28.9062 30.3719C28.9062 31.1781 29.5151 31.682 30.7658 31.682C32.2798 31.6652 33.5305 30.6742 33.9584 30.3047Z" fill="#EA2627"/>
<path d="M48.6868 32.8914C53.0478 32.9585 56.5366 36.6538 56.5366 40.937C56.5366 41.4577 56.4707 42.0288 56.4214 42.3648C56.4049 42.5327 56.2568 42.6503 56.0922 42.6503H52.6857C52.4882 42.6503 52.3401 42.4823 52.373 42.2808C52.406 41.9616 52.4553 41.4745 52.4553 41.021C52.4553 38.787 50.5628 36.5195 48.1272 36.5195C47.3702 36.5195 46.3664 36.8722 45.5436 37.3929C44.9018 37.796 44.0625 37.6784 43.5688 37.0906L42.351 35.646C42.2358 35.5117 42.2522 35.3269 42.3674 35.1925C43.0586 34.4871 44.0296 33.7816 44.7866 33.4456C44.9018 33.3953 44.984 33.2777 44.984 33.1433V32.1523C44.984 32.0179 44.9018 31.9003 44.7866 31.85C42.7459 30.9093 41.1497 28.5578 41.1497 25.9711C41.1497 22.1414 44.0131 19.3531 47.9627 19.3531H55.796C55.977 19.3531 56.1251 19.5043 56.1251 19.6891V22.4269C56.1251 22.6117 55.977 22.7629 55.796 22.7629L54.1833 22.7125C53.9364 22.6957 53.7719 22.9644 53.8871 23.1996C54.2162 23.8211 54.4795 24.7449 54.4795 25.9879C54.4795 29.2129 52.0439 32.2363 48.6703 32.3035V32.8914H48.6868ZM47.831 28.9105C49.5096 28.9105 50.7768 27.6675 50.7768 25.9039C50.7768 24.1066 49.4931 22.7965 47.831 22.7965C46.2841 22.7965 44.9347 24.1066 44.9347 25.9039C44.9511 27.6675 46.2841 28.9105 47.831 28.9105Z" fill="#EA2627"/>
<path d="M71.3805 34.8734H70.5742C69.6855 34.8734 68.9614 34.1512 68.9121 33.2441L68.5829 24.9465C68.5171 23.7371 67.9082 22.7461 66.5423 22.7461C64.8308 22.7461 63.3168 24.3922 63.3168 25.1145V33.1769C63.3168 34.1176 62.5763 34.8734 61.6547 34.8734H60.8977C59.9761 34.8734 59.2356 34.1176 59.2356 33.1769V21.016C59.2356 20.0754 59.9761 19.3196 60.8977 19.3196H62.3953C62.6092 19.3196 62.8067 19.4707 62.856 19.7059V19.7395C62.9219 20.3778 63.3004 20.2266 63.5637 20.0418C64.2055 19.6051 65.3739 19.0172 66.9373 19.0172C69.9159 19.0172 72.4502 21.0664 72.6312 24.6106L73.0262 33.093C73.092 34.0672 72.335 34.8734 71.3805 34.8734Z" fill="#EA2627"/>
<path d="M79.9709 0.019989C74.1288 0.019989 69.4058 4.84068 69.4058 10.8036C69.4058 16.7664 74.1288 21.5871 79.9709 21.5871C85.813 21.5871 90.536 16.7664 90.536 10.8036C90.536 4.84068 85.813 0.019989 79.9709 0.019989ZM79.9709 19.118C75.4782 19.118 71.8249 15.4059 71.8249 10.8036C71.8249 6.21802 75.4618 2.48912 79.9709 2.48912C84.4635 2.48912 88.1169 6.20122 88.1169 10.8036C88.1169 15.3891 84.4635 19.118 79.9709 19.118Z" fill="#EA2627"/>
<path d="M79.9708 34.907C78.8682 34.907 77.9631 33.9832 77.9631 32.8578V21.4527C77.9631 20.3274 78.8682 19.4035 79.9708 19.4035C81.0734 19.4035 81.9785 20.3106 81.9785 21.4527V32.8578C81.9785 34 81.0899 34.907 79.9708 34.907Z" fill="#EA2627"/>
<path d="M84.3154 7.99849C84.2825 8.09927 84.3319 8.21685 84.4471 8.25044C84.7598 8.33442 84.8091 8.36802 85.3686 8.4688C85.8788 8.56958 86.2079 8.60317 86.537 8.65356C86.6687 8.67036 86.7839 8.53598 86.7345 8.40161C86.7016 8.26724 86.6522 8.13286 86.6029 7.98169C86.5206 7.74653 86.3889 7.46099 86.3067 7.25943C86.2737 7.20904 86.2244 7.15865 86.1585 7.15865C85.6649 7.09146 85.2864 6.99068 84.8256 6.8563C84.7268 6.82271 84.6116 6.8899 84.5952 7.00747C84.5787 7.12505 84.5458 7.30982 84.4965 7.51138C84.4142 7.69614 84.3648 7.86411 84.3154 7.99849Z" fill="#EA2627"/>
<path d="M81.386 5.12623C80.5303 4.52154 79.9707 4.03443 79.3618 3.48014C79.3125 3.44655 79.2631 3.42975 79.1973 3.42975C79.0327 3.46334 78.6378 3.49694 78.4567 3.54733C78.3251 3.58092 78.0947 3.63131 77.9301 3.6985C77.7985 3.74889 77.7656 3.91686 77.8643 4.01764C78.1441 4.28639 78.6707 4.79029 79.0985 5.15982C79.5922 5.57974 79.872 5.8149 80.0695 5.96607C80.1188 6.01646 80.2011 6.01646 80.267 5.98287L81.3695 5.44537C81.4847 5.39498 81.5012 5.21021 81.386 5.12623Z" fill="#EA2627"/>
<path d="M80.3494 16.9848C80.3 16.9344 80.2342 16.9176 80.1683 16.9344C80.0038 16.9848 79.6582 17.0856 79.362 17.1528C79.1974 17.1864 79.0164 17.2367 78.8847 17.2703C78.7366 17.3039 78.6873 17.4887 78.786 17.5895C78.9341 17.7406 79.0987 17.9254 79.2632 18.0766C79.2961 18.1102 79.3291 18.127 79.3784 18.127C79.9873 18.1774 80.481 18.1438 81.0405 18.0598C81.2051 18.043 81.2545 17.8246 81.1228 17.7239L80.662 17.3039L80.3494 16.9848Z" fill="#EA2627"/>
<path d="M80.4644 7.07465L80.8429 7.22583C80.9746 7.27622 81.0075 7.44418 80.9088 7.54497C80.7113 7.72973 80.448 7.99848 79.7403 8.50238C78.9669 9.03988 78.3086 9.40941 77.9795 9.59418C77.8807 9.64457 77.8478 9.76214 77.8972 9.86293L78.5061 10.77C78.5555 10.8539 78.6707 10.9043 78.7529 10.8539C79.1314 10.6692 79.8555 10.2325 80.7113 9.62777C81.4683 9.07348 81.9784 8.63676 82.2253 8.4016C82.3076 8.31762 82.4557 8.33442 82.505 8.45199L82.8177 8.98949C82.9 9.14066 83.1139 9.10707 83.1633 8.9559L84.2165 5.42857C84.2659 5.2774 84.1178 5.12622 83.9697 5.19341L80.4644 6.73872C80.2999 6.78911 80.3163 7.00747 80.4644 7.07465Z" fill="#EA2627"/>
<path d="M80.3987 14.2133L80.0037 13.8606C79.8721 13.743 79.9544 13.5246 80.1189 13.5246L83.9698 13.3735C84.1343 13.3735 84.2166 13.5582 84.1343 13.6758L81.8633 16.7832C81.7646 16.9176 81.5507 16.8672 81.5342 16.6992L81.4355 15.9602C81.419 15.8426 81.2873 15.7586 81.1886 15.809C80.8101 15.9602 79.9544 16.2793 78.8188 16.5145C77.4036 16.8168 76.4326 16.9344 76.2022 16.9512C76.1693 16.9512 76.12 16.9512 76.087 16.9344C75.9554 16.8504 75.5769 16.6321 75.2478 16.3297C75.0832 16.1785 74.9351 16.0274 74.8199 15.9098C74.7047 15.7922 74.787 15.6075 74.9351 15.5907C75.6427 15.5235 77.2061 15.3723 78.3087 15.1203C79.3784 14.8684 80.0366 14.6668 80.3658 14.5493C80.4645 14.4989 80.4974 14.3141 80.3987 14.2133Z" fill="#EA2627"/>
<path d="M74.9844 6.41861C75.0667 6.31783 75.1325 6.23385 75.1325 6.23385C75.1983 6.13307 75.3464 6.11627 75.4287 6.20025L75.7908 6.56978C75.906 6.68736 76.1034 6.60338 76.1034 6.43541C76.1034 6.08268 76.1363 5.69635 76.1693 5.36041C76.1857 5.14206 76.2515 4.95729 76.268 4.78932C76.2845 4.62136 76.1034 4.52057 75.9718 4.60456C75.7908 4.73893 75.3629 5.07487 75.3629 5.07487C75.3629 5.07487 74.8363 5.56198 74.7376 5.66276C74.7046 5.69635 74.6882 5.74674 74.6882 5.78033C74.6882 5.89791 74.6553 6.09947 74.6553 6.31783C74.6553 6.51939 74.9021 6.53619 74.9844 6.41861Z" fill="#EA2627"/>
<path d="M84.9573 13.6254C84.9573 13.6254 85.0066 13.3735 85.0725 13.1887C85.1383 13.0207 84.9902 12.9032 84.875 12.8696C84.661 12.8192 84.6281 12.5504 84.8092 12.4329C85.1876 12.1977 85.7143 11.8786 86.0434 11.6266C86.3067 11.4418 86.5865 11.2235 86.8004 11.0723C86.965 10.9547 87.1789 11.0723 87.1624 11.2739C87.146 11.4586 87.1295 11.6434 87.1131 11.8282C87.0637 12.1809 86.9485 12.6008 86.8991 12.7856C86.8827 12.836 86.8498 12.8864 86.8004 12.92C86.6687 13.0039 86.3561 13.2223 85.9776 13.4575C85.7472 13.5918 85.5003 13.7598 85.3028 13.8774C85.1383 13.9782 84.9243 13.8102 84.9573 13.6254Z" fill="#EA2627"/>
<path d="M72.9274 11.4586C72.8451 11.4922 72.7793 11.5762 72.7958 11.677C72.8122 11.8282 72.8451 11.9961 72.878 12.1809C72.8945 12.3153 72.9439 12.4833 72.9768 12.6176C73.0097 12.7688 73.1578 12.8528 73.3059 12.836H73.3553C73.5199 12.8024 74.1617 12.6848 73.8654 12.3993C73.5692 12.1137 73.454 12.1473 73.2236 11.6938C73.1578 11.5762 73.0426 11.4251 72.9274 11.4586Z" fill="#EA2627"/>
<path d="M76.7948 10.8539L77.3708 11.0051C77.5353 11.0555 77.667 10.8707 77.5847 10.7196L75.5112 7.39378C75.4289 7.25941 75.2314 7.2762 75.1821 7.44417L73.9643 11.1899C73.9149 11.341 74.063 11.4922 74.2111 11.425L74.8858 11.1227C74.9846 11.0723 75.1162 11.1395 75.1491 11.2403C75.3466 11.9121 75.6099 12.6344 75.8074 13.1047C75.9884 13.5414 76.3176 14.1461 76.4821 14.4485C76.515 14.5156 76.5973 14.5492 76.6631 14.5492C76.8277 14.5324 77.1239 14.482 77.3543 14.4485C77.5189 14.4149 77.6999 14.3981 77.848 14.3645C77.9797 14.3477 78.0455 14.1797 77.9797 14.0789C77.7822 13.7598 77.5189 13.3567 77.1898 12.6512C76.8277 11.8785 76.6796 11.425 76.5809 11.0723C76.5315 10.9379 76.6467 10.8203 76.7948 10.8539Z" fill="#EA2627"/>
<path d="M186.725 19.6891C185.54 19.6891 184.602 20.6801 184.602 21.8895C184.602 23.0821 185.523 24.0731 186.725 24.0731C187.91 24.0731 188.848 23.0653 188.848 21.8727C188.831 20.6801 187.91 19.6891 186.725 19.6891ZM186.708 23.8211C185.639 23.8211 184.832 22.9477 184.832 21.8727C184.832 20.7977 185.639 19.9242 186.708 19.9242C187.778 19.9242 188.568 20.7977 188.568 21.8727C188.584 22.9477 187.778 23.8211 186.708 23.8211Z" fill="#808083"/>
<path d="M187.235 22.1408C187.515 22.04 187.728 21.805 187.728 21.4188C187.728 20.9319 187.383 20.6465 186.84 20.6465H185.836V22.9803H186.33V22.2247H186.725L187.202 22.9803H187.778L187.235 22.1408ZM186.84 21.7882H186.346V21.0998H186.84C187.087 21.0998 187.235 21.2173 187.235 21.4356C187.218 21.6539 187.087 21.7882 186.84 21.7882Z" fill="#808083"/>
</svg>
